<svg width="251" height="88" viewBox="0 0 251 88" fill="none" xmlns="http://www.w3.org/2000/svg">
<g filter="url(#filter0_d_35_14)">
<path d="M172 75V62.5H182.375V50H213.625V37.5H182.375V25H224.125V37.5H234.5V75H244.875V87.5H224.125V75H213.625V62.5H192.875V75H213.625V87.5H182.375V75H172Z" fill="white"/>
</g>
<g filter="url(#filter1_d_35_14)">
<path d="M177.625 75H188.125V87.5H146.375V75H156.875V12.5H146.375V0H177.625V75Z" fill="white"/>
</g>
<g filter="url(#filter2_d_35_14)">
<path d="M104 75V37.5H114.375V25H156.125V37.5H166.5V75H156.125V87.5H114.375V75H104ZM124.875 75H145.625V37.5H124.875V75Z" fill="white"/>
</g>
<g filter="url(#filter3_d_35_14)">
<path d="M52 87.5V75H62.375V12.5H52V0H83.25V37.5H114.5V50H124.875V75H114.5V87.5H83.25V75H104.125V50H83.25V75H72.875V87.5H52Z" fill="white"/>
</g>
<g filter="url(#filter4_d_35_14)">
<path d="M0 75V37.5H10.375V25H52.125V37.5H62.5V62.5H20.875V75H52.125V87.5H10.375V75H0ZM20.875 37.5V50H41.625V37.5H20.875Z" fill="white"/>
</g>
<defs>
<filter id="filter0_d_35_14" x="172" y="25" width="78.875" height="62.5" filterUnits="userSpaceOnUse" color-interpolation-filters="sRGB">
<feFlood flood-opacity="0" result="BackgroundImageFix"/>
<feColorMatrix in="SourceAlpha" type="matrix" values="0 0 0 0 0 0 0 0 0 0 0 0 0 0 0 0 0 0 127 0" result="hardAlpha"/>
<feOffset dx="6"/>
<feComposite in2="hardAlpha" operator="out"/>
<feColorMatrix type="matrix" values="0 0 0 0 0 0 0 0 0 0 0 0 0 0 0 0 0 0 0.5 0"/>
<feBlend mode="normal" in2="BackgroundImageFix" result="effect1_dropShadow_35_14"/>
<feBlend mode="normal" in="SourceGraphic" in2="effect1_dropShadow_35_14" result="shape"/>
</filter>
<filter id="filter1_d_35_14" x="146.375" y="0" width="47.75" height="87.5" filterUnits="userSpaceOnUse" color-interpolation-filters="sRGB">
<feFlood flood-opacity="0" result="BackgroundImageFix"/>
<feColorMatrix in="SourceAlpha" type="matrix" values="0 0 0 0 0 0 0 0 0 0 0 0 0 0 0 0 0 0 127 0" result="hardAlpha"/>
<feOffset dx="6"/>
<feComposite in2="hardAlpha" operator="out"/>
<feColorMatrix type="matrix" values="0 0 0 0 0 0 0 0 0 0 0 0 0 0 0 0 0 0 0.5 0"/>
<feBlend mode="normal" in2="BackgroundImageFix" result="effect1_dropShadow_35_14"/>
<feBlend mode="normal" in="SourceGraphic" in2="effect1_dropShadow_35_14" result="shape"/>
</filter>
<filter id="filter2_d_35_14" x="104" y="25" width="68.5" height="62.5" filterUnits="userSpaceOnUse" color-interpolation-filters="sRGB">
<feFlood flood-opacity="0" result="BackgroundImageFix"/>
<feColorMatrix in="SourceAlpha" type="matrix" values="0 0 0 0 0 0 0 0 0 0 0 0 0 0 0 0 0 0 127 0" result="hardAlpha"/>
<feOffset dx="6"/>
<feComposite in2="hardAlpha" operator="out"/>
<feColorMatrix type="matrix" values="0 0 0 0 0 0 0 0 0 0 0 0 0 0 0 0 0 0 0.5 0"/>
<feBlend mode="normal" in2="BackgroundImageFix" result="effect1_dropShadow_35_14"/>
<feBlend mode="normal" in="SourceGraphic" in2="effect1_dropShadow_35_14" result="shape"/>
</filter>
<filter id="filter3_d_35_14" x="52" y="0" width="78.875" height="87.5" filterUnits="userSpaceOnUse" color-interpolation-filters="sRGB">
<feFlood flood-opacity="0" result="BackgroundImageFix"/>
<feColorMatrix in="SourceAlpha" type="matrix" values="0 0 0 0 0 0 0 0 0 0 0 0 0 0 0 0 0 0 127 0" result="hardAlpha"/>
<feOffset dx="6"/>
<feComposite in2="hardAlpha" operator="out"/>
<feColorMatrix type="matrix" values="0 0 0 0 0 0 0 0 0 0 0 0 0 0 0 0 0 0 0.5 0"/>
<feBlend mode="normal" in2="BackgroundImageFix" result="effect1_dropShadow_35_14"/>
<feBlend mode="normal" in="SourceGraphic" in2="effect1_dropShadow_35_14" result="shape"/>
</filter>
<filter id="filter4_d_35_14" x="0" y="25" width="68.5" height="62.5" filterUnits="userSpaceOnUse" color-interpolation-filters="sRGB">
<feFlood flood-opacity="0" result="BackgroundImageFix"/>
<feColorMatrix in="SourceAlpha" type="matrix" values="0 0 0 0 0 0 0 0 0 0 0 0 0 0 0 0 0 0 127 0" result="hardAlpha"/>
<feOffset dx="6"/>
<feComposite in2="hardAlpha" operator="out"/>
<feColorMatrix type="matrix" values="0 0 0 0 0 0 0 0 0 0 0 0 0 0 0 0 0 0 0.5 0"/>
<feBlend mode="normal" in2="BackgroundImageFix" result="effect1_dropShadow_35_14"/>
<feBlend mode="normal" in="SourceGraphic" in2="effect1_dropShadow_35_14" result="shape"/>
</filter>
</defs>
</svg>
